<svg width="1920" height="1018" viewBox="0 0 1920 1018" fill="none" xmlns="http://www.w3.org/2000/svg">
<mask id="mask0_1_5017" style="mask-type:alpha" maskUnits="userSpaceOnUse" x="-1" y="0" width="1921" height="1018">
<path d="M-0.47998 0H1919.52V1017.9H-0.47998V0Z" fill="url(#paint0_linear_1_5017)"/>
</mask>
<g mask="url(#mask0_1_5017)">
<g clip-path="url(#clip0_1_5017)">
<path d="M1838.52 230.751H77.517V232.251H1838.52V230.751ZM1838.52 1465.04H77.517V1466.54H1838.52V1465.04ZM1838.52 2699.32H77.517V2700.82H1838.52V2699.32ZM1838.52 47.8932H77.517V49.3932H1838.52V47.8932ZM1838.52 1282.18H77.517V1283.68H1838.52V1282.18ZM1838.52 2516.47H77.517V2517.97H1838.52V2516.47ZM1838.52 185.037H77.517V186.537H1838.52V185.037ZM1838.52 1419.32H77.517V1420.82H1838.52V1419.32ZM1838.52 2653.61H77.517V2655.11H1838.52V2653.61ZM1838.52 2.1792H77.517V3.6792H1838.52V2.1792ZM1838.52 1236.47H77.517V1237.97H1838.52V1236.47ZM1838.52 2470.75H77.517V2472.25H1838.52V2470.75ZM1838.52 322.179H77.517V323.679H1838.52V322.179ZM1838.52 1556.46H77.517V1557.96H1838.52V1556.46ZM1838.52 2790.75H77.517V2792.25H1838.52V2790.75ZM1838.52 139.322H77.517V140.822H1838.52V139.322ZM1838.52 1373.61H77.517V1375.11H1838.52V1373.61ZM1838.52 2607.9H77.517V2609.4H1838.52V2607.9ZM1838.52 276.465H77.517V277.965H1838.52V276.465ZM1838.52 1510.75H77.517V1512.25H1838.52V1510.75ZM1838.52 2745.04H77.517V2746.54H1838.52V2745.04ZM1838.52 93.6077H77.517V95.1077H1838.52V93.6077ZM1838.52 1327.89H77.517V1329.39H1838.52V1327.89ZM1838.52 2562.18H77.517V2563.68H1838.52V2562.18ZM1838.52 596.465H77.517V597.965H1838.52V596.465ZM1838.52 1830.75H77.517V1832.25H1838.52V1830.75ZM1838.52 413.607H77.517V415.107H1838.52V413.607ZM1838.52 1647.89H77.517V1649.39H1838.52V1647.89ZM1838.52 2882.18H77.517V2883.68H1838.52V2882.18ZM1838.52 550.751H77.517V552.251H1838.52V550.751ZM1838.52 1785.04H77.517V1786.54H1838.52V1785.04ZM1838.52 367.893H77.517V369.393H1838.52V367.893ZM1838.52 1602.18H77.517V1603.68H1838.52V1602.18ZM1838.52 2836.47H77.517V2837.97H1838.52V2836.47ZM1838.52 687.893H77.517V689.393H1838.52V687.893ZM1838.52 1922.18H77.517V1923.68H1838.52V1922.18ZM1838.52 505.036H77.517V506.536H1838.52V505.036ZM1838.52 1739.32H77.517V1740.82H1838.52V1739.32ZM1838.52 642.179H77.517V643.679H1838.52V642.179ZM1838.52 1876.47H77.517V1877.97H1838.52V1876.47ZM1838.52 459.322H77.517V460.822H1838.52V459.322ZM1838.52 1693.61H77.517V1695.11H1838.52V1693.61ZM1838.52 962.18H77.517V963.68H1838.52V962.18ZM1838.52 2196.46H77.517V2197.96H1838.52V2196.46ZM1838.52 779.322H77.517V780.822H1838.52V779.322ZM1838.52 2013.61H77.517V2015.11H1838.52V2013.61ZM1838.52 916.465H77.517V917.965H1838.52V916.465ZM1838.52 2150.75H77.517V2152.25H1838.52V2150.75ZM1838.52 733.608H77.517V735.108H1838.52V733.608ZM1838.52 1967.89H77.517V1969.39H1838.52V1967.89ZM1838.52 1053.61H77.517V1055.11H1838.52V1053.61ZM1838.52 2287.89H77.517V2289.39H1838.52V2287.89ZM1838.52 870.751H77.517V872.251H1838.52V870.751ZM1838.52 2105.04H77.517V2106.54H1838.52V2105.04ZM1838.52 1007.89H77.517V1009.39H1838.52V1007.89ZM1838.52 2242.18H77.517V2243.68H1838.52V2242.18ZM1838.52 825.036H77.517V826.536H1838.52V825.036ZM1838.52 2059.32H77.517V2060.82H1838.52V2059.32ZM1838.52 1145.04H77.517V1146.54H1838.52V1145.04ZM1838.52 2379.32H77.517V2380.82H1838.52V2379.32ZM1838.52 1099.32H77.517V1100.82H1838.52V1099.32ZM1838.52 2333.61H77.517V2335.11H1838.52V2333.61ZM1838.52 1190.75H77.517V1192.25H1838.52V1190.75ZM1838.52 2425.04H77.517V2426.54H1838.52V2425.04Z" fill="url(#paint1_linear_1_5017)" fill-opacity="0.05"/>
</g>
</g>
<defs>
<linearGradient id="paint0_linear_1_5017" x1="959.52" y1="842.719" x2="959.52" y2="1017.9" gradientUnits="userSpaceOnUse">
<stop stop-color="#F0F3F7"/>
<stop offset="1" stop-color="#8D8F91" stop-opacity="0"/>
</linearGradient>
<linearGradient id="paint1_linear_1_5017" x1="1838.52" y1="1442.93" x2="77.517" y2="1442.93" gradientUnits="userSpaceOnUse">
<stop offset="0.0100262" stop-opacity="0"/>
<stop offset="0.240026"/>
<stop offset="0.755026"/>
<stop offset="1" stop-opacity="0"/>
</linearGradient>
<clipPath id="clip0_1_5017">
<rect width="1390.47" height="1327.61" fill="white" transform="translate(263.233 -196.323)"/>
</clipPath>
</defs>
</svg>