<svg xmlns="http://www.w3.org/2000/svg" width="390" height="568" viewBox="0 0 390 568" fill="none">
  <path d="M685.894 127.969H-298.536V128.807H685.894V127.969ZM685.894 817.956H-298.536V818.795H685.894V817.956ZM685.894 1507.94H-298.536V1508.78H685.894V1507.94ZM685.894 25.748H-298.536V26.5865H685.894V25.748ZM685.894 715.736H-298.536V716.575H685.894V715.736ZM685.894 1405.72H-298.536V1406.56H685.894V1405.72ZM685.894 102.414H-298.536V103.252H685.894V102.414ZM685.894 792.401H-298.536V793.24H685.894V792.401ZM685.894 1482.39H-298.536V1483.23H685.894V1482.39ZM685.894 0.193041H-298.536V1.03157H685.894V0.193041ZM685.894 690.181H-298.536V691.019H685.894V690.181ZM685.894 1380.17H-298.536V1381.01H685.894V1380.17ZM685.894 179.078H-298.536V179.917H685.894V179.078ZM685.894 869.066H-298.536V869.905H685.894V869.066ZM685.894 1559.05H-298.536V1559.89H685.894V1559.05ZM685.894 76.8584H-298.536V77.6969H685.894V76.8584ZM685.894 766.847H-298.536V767.685H685.894V766.847ZM685.894 1456.83H-298.536V1457.67H685.894V1456.83ZM685.894 153.523H-298.536V154.362H685.894V153.523ZM685.894 843.511H-298.536V844.35H685.894V843.511ZM685.894 1533.5H-298.536V1534.34H685.894V1533.5ZM685.894 51.3032H-298.536V52.1417H685.894V51.3032ZM685.894 741.291H-298.536V742.129H685.894V741.291ZM685.894 1431.28H-298.536V1432.12H685.894V1431.28ZM685.894 332.409H-298.536V333.248H685.894V332.409ZM685.894 1022.4H-298.536V1023.24H685.894V1022.4ZM685.894 230.189H-298.536V231.027H685.894V230.189ZM685.894 920.177H-298.536V921.015H685.894V920.177ZM685.894 1610.16H-298.536V1611H685.894V1610.16ZM685.894 306.854H-298.536V307.693H685.894V306.854ZM685.894 996.842H-298.536V997.68H685.894V996.842ZM685.894 204.634H-298.536V205.472H685.894V204.634ZM685.894 894.622H-298.536V895.46H685.894V894.622ZM685.894 1584.61H-298.536V1585.45H685.894V1584.61ZM685.894 383.519H-298.536V384.358H685.894V383.519ZM685.894 1073.51H-298.536V1074.35H685.894V1073.51ZM685.894 281.299H-298.536V282.138H685.894V281.299ZM685.894 971.287H-298.536V972.125H685.894V971.287ZM685.894 357.964H-298.536V358.803H685.894V357.964ZM685.894 1047.95H-298.536V1048.79H685.894V1047.95ZM685.894 255.744H-298.536V256.582H685.894V255.744ZM685.894 945.731H-298.536V946.57H685.894V945.731ZM685.894 536.85H-298.536V537.689H685.894V536.85ZM685.894 1226.84H-298.536V1227.68H685.894V1226.84ZM685.894 434.629H-298.536V435.468H685.894V434.629ZM685.894 1124.62H-298.536V1125.46H685.894V1124.62ZM685.894 511.295H-298.536V512.134H685.894V511.295ZM685.894 1201.28H-298.536V1202.12H685.894V1201.28ZM685.894 409.074H-298.536V409.913H685.894V409.074ZM685.894 1099.06H-298.536V1099.9H685.894V1099.06ZM685.894 587.96H-298.536V588.799H685.894V587.96ZM685.894 1277.95H-298.536V1278.79H685.894V1277.95ZM685.894 485.74H-298.536V486.578H685.894V485.74ZM685.894 1175.73H-298.536V1176.57H685.894V1175.73ZM685.894 562.405H-298.536V563.244H685.894V562.405ZM685.894 1252.39H-298.536V1253.23H685.894V1252.39ZM685.894 460.185H-298.536V461.023H685.894V460.185ZM685.894 1150.17H-298.536V1151.01H685.894V1150.17ZM685.894 639.071H-298.536V639.909H685.894V639.071ZM685.894 1329.06H-298.536V1329.9H685.894V1329.06ZM685.894 613.516H-298.536V614.354H685.894V613.516ZM685.894 1303.5H-298.536V1304.34H685.894V1303.5ZM685.894 664.626H-298.536V665.464H685.894V664.626ZM685.894 1354.61H-298.536V1355.45H685.894V1354.61Z" fill="url(#paint0_linear_3_16017)" fill-opacity="0.05"/>
  <defs>
    <linearGradient id="paint0_linear_3_16017" x1="685.894" y1="805.598" x2="-298.536" y2="805.598" gradientUnits="userSpaceOnUse">
      <stop offset="0.0100262" stop-opacity="0"/>
      <stop offset="0.240026"/>
      <stop offset="0.755026"/>
      <stop offset="1" stop-opacity="0"/>
    </linearGradient>
  </defs>
</svg>